# xmcd
#
# Track frame offsets: 
#        182
#        12792
#        26440
#        37707
#        52580
#        65972
#        79690
#        94320
#        108520
#        118500
#        131265
#        143412
#        156680
#        169940
#        182040
#        194992
#        209840
#        222192
#        233362
#        244437
#        255105
#        267417
#        279360
#        291725
#
# Disc length: 4046 seconds
#
# Revision: 2
# Processed by: cddbd v1.5.2PL0 Copyright (c) Steve Scherf et al.
# Submitted via: ExactAudioCopy v0.99pb4
#
DISCID=610fcc18
DTITLE=Lightnin' Slim - It's Mighty Crazy
DYEAR=1995
DGENRE=Blues
TTITLE0=Rock Me Mama
TTITLE1=Bad Luck
TTITLE2=West Texas
TTITLE3=What Evil Have I Done
TTITLE4=Lightnin' Blues
TTITLE5=I Can't Be Successful
TTITLE6=I'm Him
TTITLE7=I Can't Understand
TTITLE8=Just Made Twenty One
TTITLE9=Sugar Plum
TTITLE10=Goin' Home
TTITLE11=Wonderin' And Goin'
TTITLE12=Bad Luck And Trouble
TTITLE13=Have Your Way
TTITLE14=I'm Grown
TTITLE15=Mean Ole Lonesome Train
TTITLE16=Rocky Mountain Blues
TTITLE17=Love Me Mama
TTITLE18=I'm A Rollin' Stone
TTITLE19=Hoo Doo Blues
TTITLE20=It's Mighty Crazy
TTITLE21=Bed Bug Blues
TTITLE22=Tom Cat Blues
TTITLE23=Farming Blues
EXTD=YEAR: 1995
EXTT0=
EXTT1=
EXTT2=
EXTT3=
EXTT4=
EXTT5=
EXTT6=
EXTT7=
EXTT8=
EXTT9=
EXTT10=
EXTT11=
EXTT12=
EXTT13=
EXTT14=
EXTT15=
EXTT16=
EXTT17=
EXTT18=
EXTT19=
EXTT20=
EXTT21=
EXTT22=
EXTT23=
PLAYORDER=
